<svg  viewBox="0 0 2000 2000" fill="none" xmlns="http://www.w3.org/2000/svg">
<path d="M981.559 111.987L883.754 848.141L147.593 750.336C104.89 744.662 65.6731 774.68 59.9997 817.383L44.9382 930.748C39.2648 973.451 69.2831 1012.67 111.986 1018.34L848.148 1116.15L750.343 1852.3C744.67 1895 774.688 1934.22 817.391 1939.89L930.755 1954.95C973.458 1960.63 1012.68 1930.61 1018.35 1887.91L1116.15 1151.75L1852.3 1249.56C1895 1255.23 1934.22 1225.21 1939.89 1182.51L1954.95 1069.14C1960.63 1026.44 1930.61 987.225 1887.9 981.551L1151.76 883.748L1249.56 147.594C1255.24 104.891 1225.22 65.6742 1182.52 60.0007L1069.15 44.9393C1026.45 39.2658 987.232 69.2842 981.559 111.987Z" fill="url(#paint0_linear_151_5)" stroke="url(#paint1_linear_151_5)" stroke-width="200"/>
<defs>
<linearGradient id="paint0_linear_151_5" x1="1027.14" y1="983.683" x2="1019.51" y2="1115.36" gradientUnits="userSpaceOnUse">
<stop stop-color="#98B5ED"/>
<stop offset="1" stop-color="#566787"/>
</linearGradient>
<linearGradient id="paint1_linear_151_5" x1="1027.14" y1="983.683" x2="1019.51" y2="1115.36" gradientUnits="userSpaceOnUse">
<stop stop-color="#98B5ED"/>
<stop offset="1" stop-color="#566787"/>
</linearGradient>
</defs>
</svg>
