<svg width="95" height="97" viewBox="0 0 95 97" fill="none" xmlns="http://www.w3.org/2000/svg">
<path d="M40.2402 7.69996V40.9745H7.7C5.10426 40.9745 3 43.0787 3 45.6745L3 50.7133C3 53.309 5.10425 55.4133 7.7 55.4133H40.2402V88.6878C40.2402 91.2835 42.3445 93.3878 44.9402 93.3878H49.8157C52.4114 93.3878 54.5157 91.2836 54.5157 88.6878V55.4133H87.0553C89.6511 55.4133 91.7553 53.309 91.7553 50.7133V45.6745C91.7553 43.0788 89.6511 40.9745 87.0553 40.9745H54.5157V7.69997C54.5157 5.10423 52.4115 2.99997 49.8157 2.99997H44.9402C42.3445 2.99997 40.2402 5.10421 40.2402 7.69996Z" fill="#6E8DC9" stroke="#6E8DC9" stroke-width="6"/>
</svg>
