<svg width="124" height="129" viewBox="0 0 124 129" fill="none" xmlns="http://www.w3.org/2000/svg">
<path d="M1.67539 120.223C4.57252 126.993 12.4092 130.132 19.1792 127.235C25.9491 124.338 29.0887 116.501 26.1915 109.731C23.2944 102.961 15.4577 99.8216 8.68773 102.719C1.91779 105.616 -1.22174 113.453 1.67539 120.223ZM101.839 0.130593L96.0042 28.4023L123.405 19.3193L101.839 0.130593ZM14.7345 117.345C33.4231 111.024 58.7737 99.19 78.8475 82.9756C98.8459 66.822 114.184 45.824 111.403 21.2085L106.434 21.7699C108.923 43.7959 95.268 63.2847 75.7057 79.086C56.2185 94.8266 31.4413 106.416 13.1324 112.609L14.7345 117.345Z" fill="#6E8DC9"/>
</svg>
