<svg width="692" height="169" viewBox="0 0 692 169" fill="none" xmlns="http://www.w3.org/2000/svg">
<g filter="url(#filter0_d_180_15)">
<g filter="url(#filter1_ii_180_15)">
<rect x="4" y="9" width="657" height="130" rx="25" fill="#D9D9D9"/>
</g>
<rect x="76" y="30" width="188" height="88" rx="11" fill="#D9D9D9"/>
<mask id="mask0_180_15" style="mask-type:alpha" maskUnits="userSpaceOnUse" x="76" y="30" width="188" height="88">
<rect x="76" y="30" width="188" height="88" rx="11" fill="#D9D9D9"/>
</mask>
<g mask="url(#mask0_180_15)">
<path d="M111.464 57.12C114.621 57.12 117.011 57.7813 118.632 59.104C120.296 60.4267 121.427 62.1973 122.024 64.416C122.664 66.592 122.984 69.024 122.984 71.712V88.096C122.984 89.2053 122.621 90.144 121.896 90.912C121.171 91.6373 120.253 92 119.144 92C118.035 92 117.117 91.6373 116.392 90.912C115.667 90.144 115.304 89.2053 115.304 88.096V71.712C115.304 70.304 115.112 69.0453 114.728 67.936C114.387 66.784 113.747 65.8667 112.808 65.184C111.869 64.5013 110.525 64.16 108.776 64.16C107.069 64.16 105.619 64.5013 104.424 65.184C103.272 65.8667 102.376 66.784 101.736 67.936C101.139 69.0453 100.84 70.304 100.84 71.712V88.096C100.84 89.2053 100.477 90.144 99.752 90.912C99.0267 91.6373 98.1093 92 97 92C95.8907 92 94.9733 91.6373 94.248 90.912C93.5227 90.144 93.16 89.2053 93.16 88.096V61.664C93.16 60.5547 93.5227 59.6373 94.248 58.912C94.9733 58.144 95.8907 57.76 97 57.76C98.1093 57.76 99.0267 58.144 99.752 58.912C100.477 59.6373 100.84 60.5547 100.84 61.664V64.416L99.88 64.224C100.264 63.4987 100.819 62.7307 101.544 61.92C102.269 61.0667 103.123 60.2773 104.104 59.552C105.085 58.8267 106.195 58.2507 107.432 57.824C108.669 57.3547 110.013 57.12 111.464 57.12ZM164.501 74.912C164.501 78.4107 163.712 81.504 162.133 84.192C160.597 86.8373 158.506 88.9067 155.861 90.4C153.258 91.8933 150.336 92.64 147.093 92.64C143.85 92.64 140.906 91.8933 138.261 90.4C135.658 88.9067 133.568 86.8373 131.989 84.192C130.453 81.504 129.685 78.4107 129.685 74.912C129.685 71.4133 130.453 68.3413 131.989 65.696C133.568 63.008 135.658 60.9173 138.261 59.424C140.906 57.888 143.85 57.12 147.093 57.12C150.336 57.12 153.258 57.888 155.861 59.424C158.506 60.9173 160.597 63.008 162.133 65.696C163.712 68.3413 164.501 71.4133 164.501 74.912ZM156.821 74.912C156.821 72.736 156.373 70.8587 155.477 69.28C154.624 67.6587 153.45 66.4 151.957 65.504C150.506 64.608 148.885 64.16 147.093 64.16C145.301 64.16 143.658 64.608 142.165 65.504C140.714 66.4 139.541 67.6587 138.645 69.28C137.792 70.8587 137.365 72.736 137.365 74.912C137.365 77.0453 137.792 78.9227 138.645 80.544C139.541 82.1227 140.714 83.36 142.165 84.256C143.658 85.152 145.301 85.6 147.093 85.6C148.885 85.6 150.506 85.152 151.957 84.256C153.45 83.36 154.624 82.1227 155.477 80.544C156.373 78.9227 156.821 77.0453 156.821 74.912ZM185.431 57.12C187.223 57.12 188.865 57.3973 190.359 57.952C191.852 58.5067 193.132 59.2107 194.199 60.064C195.308 60.9173 196.161 61.792 196.759 62.688C197.399 63.5413 197.719 64.2667 197.719 64.864L196.055 65.696V61.024C196.055 59.9147 196.417 58.9973 197.143 58.272C197.868 57.504 198.785 57.12 199.895 57.12C201.004 57.12 201.921 57.4827 202.647 58.208C203.372 58.9333 203.735 59.872 203.735 61.024V89.504C203.735 93.216 202.924 96.1813 201.303 98.4C199.724 100.661 197.633 102.283 195.031 103.264C192.428 104.288 189.633 104.8 186.647 104.8C185.793 104.8 184.684 104.693 183.319 104.48C181.953 104.267 180.652 104.011 179.415 103.712C178.177 103.413 177.239 103.136 176.599 102.88C175.319 102.325 174.423 101.621 173.911 100.768C173.441 99.9573 173.356 99.0827 173.655 98.144C174.039 96.9067 174.657 96.0533 175.51 95.584C176.364 95.1573 177.26 95.1147 178.199 95.456C178.625 95.584 179.329 95.84 180.311 96.224C181.292 96.608 182.359 96.9493 183.51 97.248C184.705 97.5893 185.751 97.76 186.647 97.76C189.847 97.76 192.215 97.12 193.751 95.84C195.287 94.56 196.055 92.7893 196.055 90.528V84.96L196.823 85.536C196.823 86.0907 196.524 86.7733 195.927 87.584C195.372 88.352 194.583 89.12 193.559 89.888C192.577 90.656 191.404 91.3173 190.039 91.872C188.673 92.384 187.223 92.64 185.687 92.64C182.657 92.64 179.927 91.8933 177.495 90.4C175.063 88.864 173.143 86.7733 171.735 84.128C170.327 81.44 169.623 78.368 169.623 74.912C169.623 71.4133 170.327 68.3413 171.735 65.696C173.143 63.008 175.041 60.9173 177.431 59.424C179.82 57.888 182.487 57.12 185.431 57.12ZM186.647 64.16C184.727 64.16 183.041 64.6293 181.591 65.568C180.14 66.5067 179.009 67.7867 178.199 69.408C177.388 71.0293 176.983 72.864 176.983 74.912C176.983 76.9173 177.388 78.7307 178.199 80.352C179.009 81.9733 180.14 83.2533 181.591 84.192C183.041 85.1307 184.727 85.6 186.647 85.6C188.609 85.6 190.316 85.1307 191.767 84.192C193.217 83.2533 194.348 81.9733 195.159 80.352C195.969 78.7307 196.375 76.9173 196.375 74.912C196.375 72.864 195.969 71.0293 195.159 69.408C194.348 67.7867 193.217 66.5067 191.767 65.568C190.316 64.6293 188.609 64.16 186.647 64.16ZM219.267 88.096C219.267 89.2053 218.904 90.144 218.179 90.912C217.454 91.6373 216.536 92 215.427 92C214.318 92 213.4 91.6373 212.675 90.912C211.95 90.144 211.587 89.2053 211.587 88.096V61.664C211.587 60.5547 211.95 59.6373 212.675 58.912C213.4 58.144 214.318 57.76 215.427 57.76C216.536 57.76 217.454 58.144 218.179 58.912C218.904 59.6373 219.267 60.5547 219.267 61.664V88.096ZM215.363 53.6C213.912 53.6 212.888 53.3653 212.291 52.896C211.694 52.4267 211.395 51.5947 211.395 50.4V49.184C211.395 47.9467 211.715 47.1147 212.355 46.688C213.038 46.2187 214.062 45.984 215.427 45.984C216.92 45.984 217.966 46.2187 218.563 46.688C219.16 47.1573 219.459 47.9893 219.459 49.184V50.4C219.459 51.6373 219.139 52.4907 218.499 52.96C217.859 53.3867 216.814 53.6 215.363 53.6Z" fill="url(#paint0_linear_180_15)"/>
</g>
<path d="M300.272 97.66C297.016 97.66 294.156 97.176 291.692 96.208C289.228 95.24 286.852 93.7 284.564 91.588C284.256 91.28 283.992 90.95 283.772 90.598C283.596 90.202 283.508 89.784 283.508 89.344C283.508 88.64 283.75 88.024 284.234 87.496C284.762 86.924 285.4 86.638 286.148 86.638C286.764 86.638 287.314 86.88 287.798 87.364C289.514 89.036 291.362 90.312 293.342 91.192C295.366 92.072 297.632 92.512 300.14 92.512C302.076 92.512 303.814 92.204 305.354 91.588C306.938 90.972 308.192 90.114 309.116 89.014C310.04 87.914 310.502 86.638 310.502 85.186C310.458 83.426 309.93 81.974 308.918 80.83C307.95 79.686 306.586 78.74 304.826 77.992C303.11 77.2 301.108 76.54 298.82 76.012C296.796 75.528 294.926 74.934 293.21 74.23C291.538 73.526 290.086 72.668 288.854 71.656C287.622 70.6 286.654 69.346 285.95 67.894C285.29 66.398 284.96 64.66 284.96 62.68C284.96 60.172 285.62 57.972 286.94 56.08C288.26 54.188 290.086 52.736 292.418 51.724C294.75 50.668 297.434 50.14 300.47 50.14C303.154 50.14 305.684 50.58 308.06 51.46C310.48 52.34 312.416 53.55 313.868 55.09C314.748 55.926 315.188 56.74 315.188 57.532C315.188 58.192 314.902 58.808 314.33 59.38C313.802 59.908 313.186 60.172 312.482 60.172C311.998 60.172 311.558 59.996 311.162 59.644C310.414 58.808 309.468 58.06 308.324 57.4C307.18 56.74 305.926 56.212 304.562 55.816C303.198 55.42 301.834 55.222 300.47 55.222C298.446 55.222 296.664 55.53 295.124 56.146C293.584 56.718 292.374 57.554 291.494 58.654C290.658 59.71 290.24 60.986 290.24 62.482C290.24 64.154 290.724 65.54 291.692 66.64C292.66 67.696 293.958 68.576 295.586 69.28C297.214 69.94 299.018 70.534 300.998 71.062C303.154 71.59 305.134 72.206 306.938 72.91C308.786 73.57 310.37 74.406 311.69 75.418C313.01 76.43 314.022 77.728 314.726 79.312C315.474 80.852 315.848 82.766 315.848 85.054C315.848 87.474 315.166 89.63 313.802 91.522C312.438 93.414 310.568 94.91 308.192 96.01C305.86 97.066 303.22 97.616 300.272 97.66ZM356.188 79.84C356.188 83.272 355.418 86.33 353.878 89.014C352.382 91.698 350.336 93.81 347.74 95.35C345.188 96.89 342.306 97.66 339.094 97.66C335.882 97.66 332.978 96.89 330.382 95.35C327.786 93.81 325.718 91.698 324.178 89.014C322.682 86.33 321.934 83.272 321.934 79.84C321.934 76.408 322.682 73.35 324.178 70.666C325.718 67.982 327.786 65.87 330.382 64.33C332.978 62.79 335.882 62.02 339.094 62.02C342.306 62.02 345.188 62.79 347.74 64.33C350.336 65.87 352.382 67.982 353.878 70.666C355.418 73.35 356.188 76.408 356.188 79.84ZM350.908 79.84C350.908 77.288 350.38 75.044 349.324 73.108C348.312 71.172 346.904 69.654 345.1 68.554C343.34 67.454 341.338 66.904 339.094 66.904C336.85 66.904 334.826 67.454 333.022 68.554C331.262 69.654 329.854 71.172 328.798 73.108C327.742 75.044 327.214 77.288 327.214 79.84C327.214 82.348 327.742 84.57 328.798 86.506C329.854 88.442 331.262 89.982 333.022 91.126C334.826 92.226 336.85 92.776 339.094 92.776C341.338 92.776 343.34 92.226 345.1 91.126C346.904 89.982 348.312 88.442 349.324 86.506C350.38 84.57 350.908 82.348 350.908 79.84ZM378.386 48.292C379.134 48.292 379.904 48.38 380.696 48.556C381.532 48.732 382.236 49.04 382.808 49.48C383.424 49.92 383.732 50.514 383.732 51.262C383.732 51.966 383.512 52.56 383.072 53.044C382.632 53.484 382.104 53.704 381.488 53.704C381.092 53.704 380.542 53.594 379.838 53.374C379.134 53.11 378.408 52.978 377.66 52.978C376.648 52.978 375.812 53.198 375.152 53.638C374.536 54.078 374.074 54.672 373.766 55.42C373.502 56.124 373.37 56.916 373.37 57.796V94.294C373.37 95.042 373.106 95.68 372.578 96.208C372.094 96.736 371.478 97 370.73 97C369.938 97 369.3 96.736 368.816 96.208C368.332 95.68 368.09 95.042 368.09 94.294V57.862C368.09 54.914 368.992 52.582 370.796 50.866C372.644 49.15 375.174 48.292 378.386 48.292ZM380.234 63.406C380.938 63.406 381.532 63.648 382.016 64.132C382.5 64.572 382.742 65.144 382.742 65.848C382.742 66.552 382.5 67.146 382.016 67.63C381.532 68.07 380.938 68.29 380.234 68.29H363.668C362.964 68.29 362.37 68.048 361.886 67.564C361.402 67.08 361.16 66.508 361.16 65.848C361.16 65.1 361.402 64.506 361.886 64.066C362.37 63.626 362.964 63.406 363.668 63.406H380.234ZM388.462 63.076H403.972C404.676 63.076 405.248 63.318 405.688 63.802C406.172 64.286 406.414 64.858 406.414 65.518C406.414 66.222 406.172 66.816 405.688 67.3C405.248 67.74 404.676 67.96 403.972 67.96H388.462C387.802 67.96 387.23 67.718 386.746 67.234C386.262 66.75 386.02 66.156 386.02 65.452C386.02 64.792 386.262 64.242 386.746 63.802C387.23 63.318 387.802 63.076 388.462 63.076ZM395.392 54.1C396.14 54.1 396.756 54.364 397.24 54.892C397.724 55.376 397.966 55.992 397.966 56.74V88.618C397.966 89.674 398.12 90.466 398.428 90.994C398.736 91.522 399.132 91.896 399.616 92.116C400.144 92.292 400.65 92.38 401.134 92.38C401.574 92.38 401.948 92.314 402.256 92.182C402.608 92.006 403.004 91.918 403.444 91.918C403.884 91.918 404.28 92.138 404.632 92.578C405.028 92.974 405.226 93.502 405.226 94.162C405.226 94.954 404.764 95.636 403.84 96.208C402.916 96.736 401.882 97 400.738 97C400.122 97 399.352 96.956 398.428 96.868C397.548 96.78 396.668 96.494 395.788 96.01C394.908 95.526 394.16 94.734 393.544 93.634C392.972 92.49 392.686 90.906 392.686 88.882V56.74C392.686 55.992 392.95 55.376 393.478 54.892C394.006 54.364 394.644 54.1 395.392 54.1ZM456.662 62.284C457.366 62.284 457.96 62.526 458.444 63.01C458.972 63.494 459.236 64.132 459.236 64.924C459.236 65.1 459.214 65.298 459.17 65.518C459.17 65.694 459.126 65.87 459.038 66.046L448.874 95.284C448.654 95.856 448.28 96.296 447.752 96.604C447.268 96.912 446.74 97.044 446.168 97C445.156 96.956 444.386 96.384 443.858 95.284L435.542 74.428L436.862 74.626L429.338 95.284C428.854 96.384 428.084 96.956 427.028 97C426.456 97.044 425.906 96.912 425.378 96.604C424.85 96.296 424.498 95.856 424.322 95.284L413.96 66.046C413.828 65.65 413.762 65.276 413.762 64.924C413.762 64.22 414.004 63.604 414.488 63.076C414.972 62.548 415.632 62.284 416.468 62.284C416.996 62.284 417.48 62.416 417.92 62.68C418.36 62.944 418.668 63.362 418.844 63.934L427.754 89.938L426.368 89.872L434.09 70.072C434.53 68.972 435.344 68.422 436.532 68.422C437.148 68.422 437.632 68.576 437.984 68.884C438.38 69.148 438.666 69.544 438.842 70.072L446.894 89.872L445.244 90.004L454.154 63.934C454.55 62.834 455.386 62.284 456.662 62.284ZM498.759 79.84C498.759 83.272 497.989 86.33 496.449 89.014C494.953 91.698 492.907 93.81 490.311 95.35C487.759 96.89 484.877 97.66 481.665 97.66C478.453 97.66 475.549 96.89 472.953 95.35C470.357 93.81 468.289 91.698 466.749 89.014C465.253 86.33 464.505 83.272 464.505 79.84C464.505 76.408 465.253 73.35 466.749 70.666C468.289 67.982 470.357 65.87 472.953 64.33C475.549 62.79 478.453 62.02 481.665 62.02C484.877 62.02 487.759 62.79 490.311 64.33C492.907 65.87 494.953 67.982 496.449 70.666C497.989 73.35 498.759 76.408 498.759 79.84ZM493.479 79.84C493.479 77.288 492.951 75.044 491.895 73.108C490.883 71.172 489.475 69.654 487.671 68.554C485.911 67.454 483.909 66.904 481.665 66.904C479.421 66.904 477.397 67.454 475.593 68.554C473.833 69.654 472.425 71.172 471.369 73.108C470.313 75.044 469.785 77.288 469.785 79.84C469.785 82.348 470.313 84.57 471.369 86.506C472.425 88.442 473.833 89.982 475.593 91.126C477.397 92.226 479.421 92.776 481.665 92.776C483.909 92.776 485.911 92.226 487.671 91.126C489.475 89.982 490.883 88.442 491.895 86.506C492.951 84.57 493.479 82.348 493.479 79.84ZM509.34 97C508.592 97 507.954 96.736 507.426 96.208C506.942 95.68 506.7 95.042 506.7 94.294V65.518C506.7 64.77 506.942 64.154 507.426 63.67C507.954 63.142 508.592 62.878 509.34 62.878C510.132 62.878 510.77 63.142 511.254 63.67C511.738 64.154 511.98 64.77 511.98 65.518V74.23L511.188 72.844C511.452 71.48 511.914 70.16 512.574 68.884C513.278 67.564 514.158 66.398 515.214 65.386C516.27 64.33 517.48 63.516 518.844 62.944C520.208 62.328 521.704 62.02 523.332 62.02C524.3 62.02 525.18 62.262 525.972 62.746C526.808 63.186 527.226 63.824 527.226 64.66C527.226 65.584 526.984 66.266 526.5 66.706C526.016 67.146 525.466 67.366 524.85 67.366C524.278 67.366 523.728 67.256 523.2 67.036C522.672 66.772 522.012 66.64 521.22 66.64C520.12 66.64 519.02 66.948 517.92 67.564C516.864 68.136 515.874 68.972 514.95 70.072C514.07 71.172 513.344 72.426 512.772 73.834C512.244 75.198 511.98 76.672 511.98 78.256V94.294C511.98 95.042 511.716 95.68 511.188 96.208C510.704 96.736 510.088 97 509.34 97ZM536.359 97C535.567 97 534.929 96.736 534.445 96.208C533.961 95.68 533.719 95.042 533.719 94.294V50.8C533.719 50.052 533.961 49.436 534.445 48.952C534.929 48.424 535.567 48.16 536.359 48.16C537.107 48.16 537.723 48.424 538.207 48.952C538.735 49.436 538.999 50.052 538.999 50.8V94.294C538.999 95.042 538.735 95.68 538.207 96.208C537.723 96.736 537.107 97 536.359 97ZM558.271 62.68C558.975 62.68 559.569 62.966 560.053 63.538C560.581 64.066 560.845 64.616 560.845 65.188C560.845 65.936 560.493 66.596 559.789 67.168L538.405 85.846L538.207 79.708L556.423 63.472C556.951 62.944 557.567 62.68 558.271 62.68ZM558.997 96.934C558.249 96.934 557.589 96.648 557.017 96.076L542.959 81.094L546.919 77.464L560.845 92.38C561.373 92.952 561.637 93.612 561.637 94.36C561.637 95.152 561.329 95.79 560.713 96.274C560.097 96.714 559.525 96.934 558.997 96.934ZM567.048 91.588C566.652 91.016 566.476 90.422 566.52 89.806C566.564 89.146 566.938 88.574 567.642 88.09C568.082 87.782 568.588 87.65 569.16 87.694C569.776 87.738 570.326 88.024 570.81 88.552C572.042 90.004 573.45 91.17 575.034 92.05C576.618 92.886 578.554 93.304 580.842 93.304C581.898 93.26 582.954 93.084 584.01 92.776C585.066 92.468 585.946 91.94 586.65 91.192C587.398 90.4 587.772 89.366 587.772 88.09C587.772 86.858 587.398 85.89 586.65 85.186C585.902 84.438 584.934 83.844 583.746 83.404C582.558 82.92 581.26 82.502 579.852 82.15C578.4 81.754 576.97 81.314 575.562 80.83C574.154 80.302 572.878 79.664 571.734 78.916C570.634 78.124 569.732 77.156 569.028 76.012C568.368 74.824 568.038 73.394 568.038 71.722C568.038 69.742 568.566 68.026 569.622 66.574C570.722 65.122 572.174 64 573.978 63.208C575.826 62.416 577.828 62.02 579.984 62.02C581.216 62.02 582.492 62.174 583.812 62.482C585.176 62.746 586.496 63.23 587.772 63.934C589.048 64.594 590.17 65.518 591.138 66.706C591.534 67.146 591.754 67.696 591.798 68.356C591.842 69.016 591.556 69.61 590.94 70.138C590.456 70.49 589.906 70.644 589.29 70.6C588.718 70.556 588.234 70.336 587.838 69.94C586.914 68.84 585.748 68.004 584.34 67.432C582.976 66.816 581.458 66.508 579.786 66.508C578.73 66.508 577.696 66.662 576.684 66.97C575.672 67.278 574.814 67.806 574.11 68.554C573.45 69.258 573.12 70.248 573.12 71.524C573.164 72.712 573.56 73.68 574.308 74.428C575.056 75.176 576.068 75.792 577.344 76.276C578.62 76.716 580.028 77.156 581.568 77.596C582.976 77.948 584.318 78.366 585.594 78.85C586.914 79.29 588.102 79.884 589.158 80.632C590.214 81.38 591.05 82.348 591.666 83.536C592.282 84.68 592.59 86.132 592.59 87.892C592.59 89.916 592.018 91.676 590.874 93.172C589.73 94.624 588.212 95.746 586.32 96.538C584.472 97.286 582.47 97.66 580.314 97.66C577.894 97.66 575.496 97.198 573.12 96.274C570.788 95.35 568.764 93.788 567.048 91.588Z" fill="#242424"/>
</g>
<g filter="url(#filter2_d_180_15)">
<rect x="637.726" y="66.6465" width="14.4388" height="90.3878" rx="4.7" transform="rotate(7 637.726 66.6465)" fill="#6E8DC9" stroke="#6E8DC9" stroke-width="6"/>
<rect x="593.646" y="114.041" width="14.4388" height="90.3878" rx="4.7" transform="rotate(-83 593.646 114.041)" fill="#6E8DC9" stroke="#6E8DC9" stroke-width="6"/>
</g>
<defs>
<filter id="filter0_d_180_15" x="0" y="0" width="680" height="156" filterUnits="userSpaceOnUse" color-interpolation-filters="sRGB">
<feFlood flood-opacity="0" result="BackgroundImageFix"/>
<feColorMatrix in="SourceAlpha" type="matrix" values="0 0 0 0 0 0 0 0 0 0 0 0 0 0 0 0 0 0 127 0" result="hardAlpha"/>
<feOffset dy="4"/>
<feGaussianBlur stdDeviation="2"/>
<feComposite in2="hardAlpha" operator="out"/>
<feColorMatrix type="matrix" values="0 0 0 0 0 0 0 0 0 0 0 0 0 0 0 0 0 0 0.25 0"/>
<feBlend mode="normal" in2="BackgroundImageFix" result="effect1_dropShadow_180_15"/>
<feBlend mode="normal" in="SourceGraphic" in2="effect1_dropShadow_180_15" result="shape"/>
</filter>
<filter id="filter1_ii_180_15" x="-65.5" y="-31" width="773.5" height="225" filterUnits="userSpaceOnUse" color-interpolation-filters="sRGB">
<feFlood flood-opacity="0" result="BackgroundImageFix"/>
<feBlend mode="normal" in="SourceGraphic" in2="BackgroundImageFix" result="shape"/>
<feColorMatrix in="SourceAlpha" type="matrix" values="0 0 0 0 0 0 0 0 0 0 0 0 0 0 0 0 0 0 127 0" result="hardAlpha"/>
<feMorphology radius="35" operator="erode" in="SourceAlpha" result="effect1_innerShadow_180_15"/>
<feOffset dx="47" dy="55"/>
<feGaussianBlur stdDeviation="18.8"/>
<feComposite in2="hardAlpha" operator="arithmetic" k2="-1" k3="1"/>
<feColorMatrix type="matrix" values="0 0 0 0 0.432002 0 0 0 0 0.553278 0 0 0 0 0.788692 0 0 0 0.23 0"/>
<feBlend mode="normal" in2="shape" result="effect1_innerShadow_180_15"/>
<feColorMatrix in="SourceAlpha" type="matrix" values="0 0 0 0 0 0 0 0 0 0 0 0 0 0 0 0 0 0 127 0" result="hardAlpha"/>
<feMorphology radius="11" operator="erode" in="SourceAlpha" result="effect2_innerShadow_180_15"/>
<feOffset dx="-85" dy="-40"/>
<feGaussianBlur stdDeviation="29.25"/>
<feComposite in2="hardAlpha" operator="arithmetic" k2="-1" k3="1"/>
<feColorMatrix type="matrix" values="0 0 0 0 0 0 0 0 0 0 0 0 0 0 0 0 0 0 0.25 0"/>
<feBlend mode="normal" in2="effect1_innerShadow_180_15" result="effect2_innerShadow_180_15"/>
</filter>
<filter id="filter2_d_180_15" x="587.183" y="64.1835" width="104.4" height="104.4" filterUnits="userSpaceOnUse" color-interpolation-filters="sRGB">
<feFlood flood-opacity="0" result="BackgroundImageFix"/>
<feColorMatrix in="SourceAlpha" type="matrix" values="0 0 0 0 0 0 0 0 0 0 0 0 0 0 0 0 0 0 127 0" result="hardAlpha"/>
<feOffset dy="4"/>
<feGaussianBlur stdDeviation="2"/>
<feComposite in2="hardAlpha" operator="out"/>
<feColorMatrix type="matrix" values="0 0 0 0 0 0 0 0 0 0 0 0 0 0 0 0 0 0 0.25 0"/>
<feBlend mode="normal" in2="BackgroundImageFix" result="effect1_dropShadow_180_15"/>
<feBlend mode="normal" in="SourceGraphic" in2="effect1_dropShadow_180_15" result="shape"/>
</filter>
<linearGradient id="paint0_linear_180_15" x1="328.044" y1="152.435" x2="108.494" y2="-28.5383" gradientUnits="userSpaceOnUse">
<stop stop-color="#C5D9FF"/>
<stop offset="1" stop-color="#768299"/>
</linearGradient>
</defs>
</svg>
